<?xml version="1.0" encoding="UTF-8" standalone="no"?>
<svg
   xmlns:dc="http://purl.org/dc/elements/1.1/"
   xmlns:cc="http://creativecommons.org/ns#"
   xmlns:rdf="http://www.w3.org/1999/02/22-rdf-syntax-ns#"
   xmlns:svg="http://www.w3.org/2000/svg"
   xmlns="http://www.w3.org/2000/svg"
   xmlns:sodipodi="http://sodipodi.sourceforge.net/DTD/sodipodi-0.dtd"
   xmlns:inkscape="http://www.inkscape.org/namespaces/inkscape"
   id="Circle"
   width="10"
   height="10"
   viewBox="0 0 10 10"
   version="1.1"
   sodipodi:docname="handshake.svg"
   inkscape:version="0.92.3 (2405546, 2018-03-11)">
  <metadata
     id="metadata13">
    <rdf:RDF>
      <cc:Work
         rdf:about="">
        <dc:format>image/svg+xml</dc:format>
        <dc:type
           rdf:resource="http://purl.org/dc/dcmitype/StillImage" />
        <dc:title>Circle</dc:title>
      </cc:Work>
    </rdf:RDF>
  </metadata>
  <defs
     id="defs11" />
  <sodipodi:namedview
     pagecolor="#ffffff"
     bordercolor="#666666"
     borderopacity="1"
     objecttolerance="10"
     gridtolerance="10"
     guidetolerance="10"
     inkscape:pageopacity="0"
     inkscape:pageshadow="2"
     inkscape:window-width="1920"
     inkscape:window-height="1026"
     id="namedview9"
     showgrid="false"
     inkscape:zoom="55.734377"
     inkscape:cx="5.428715"
     inkscape:cy="5.7818807"
     inkscape:window-x="1050"
     inkscape:window-y="0"
     inkscape:window-maximized="1"
     inkscape:current-layer="Circle"
     inkscape:snap-page="true"
     inkscape:snap-text-baseline="true" />
  <title
     id="title2">Circle</title>
  <g
     transform="matrix(0.01563632,0,0,0.01563632,1.2937113,0.91236205)"
     id="g6"
     style="fill:#396eb2;fill-opacity:0.66839379">
    <g
       id="g4"
       style="fill:#396eb2;fill-opacity:0.66839379">
      <path
         inkscape:connector-curvature="0"
         d="m 208.057,362.515 c -15.603,-10.082 -36.424,-5.606 -46.506,9.996 10.082,-15.603 5.606,-36.424 -9.996,-46.506 -15.603,-10.082 -36.424,-5.606 -46.506,9.996 10.082,-15.603 5.606,-36.424 -9.996,-46.506 -15.603,-10.082 -36.424,-5.606 -46.506,9.996 l -34.484,53.367 c -10.082,15.603 -5.606,36.424 9.996,46.506 15.603,10.082 36.424,5.606 46.506,-9.996 -10.082,15.603 -5.606,36.424 9.996,46.506 15.603,10.082 36.424,5.606 46.506,-9.996 -10.082,15.603 -5.606,36.424 9.996,46.506 15.602,10.082 36.424,5.606 46.506,-9.996 l 34.484,-53.367 c 10.082,-15.603 5.606,-36.425 -9.996,-46.506 z"
         id="path2"
         style="fill:#396eb2;fill-opacity:0.66839379" />
    </g>
  </g>
  <path
     inkscape:connector-curvature="0"
     d="M 8.1205442,5.1418302 8.1064403,5.1326517 5.426547,3.3877635 4.9995348,4.0358577 C 4.808756,4.3294609 4.4859286,4.5046815 4.1354092,4.5046815 3.9370468,4.5046815 3.7439226,4.4476558 3.5769424,4.3397496 3.0999564,4.0315264 2.9626383,3.3927202 3.2704236,2.916391 L 3.5269374,2.5180558 2.6269578,2.3015396 1.2937113,5.0540636 1.6206511,5.3354548 1.6294856,5.321773 C 1.8200924,5.0267938 2.143686,4.8506976 2.495081,4.8507289 c 0.1983624,1.56e-5 0.3914709,0.057057 0.5584199,0.1649319 0.1580832,0.1021364 0.2824858,0.2422379 0.3638103,0.4066694 0.1846962,0.00694 0.3636226,0.063374 0.5196731,0.1642126 0.1580832,0.1021365 0.2824857,0.2422379 0.3638102,0.4066538 0.1846963,0.00694 0.363607,0.063343 0.5196731,0.1642283 0.476986,0.3082075 0.6143041,0.9470293 0.306081,1.4240153 L 4.8406541,8.0238855 5.2832714,8.3173323 C 5.5272449,8.4749777 5.8528088,8.4049895 6.0104541,8.1610316 6.1680995,7.9170581 6.0981113,7.5914943 5.8541535,7.4338489 l 0.1789108,0.115615 C 6.2770378,7.7071093 6.6026016,7.6371211 6.760247,7.3931632 6.9178923,7.1491897 6.8479042,6.8236416 6.6039619,6.6659962 L 6.7828571,6.7815955 C 7.0268306,6.9392409 7.3523944,6.8692527 7.5100398,6.6252948 7.6676695,6.381337 7.5977283,6.0558201 7.3538017,5.898159 l 0.1788482,0.1155681 c 0.2439735,0.1576454 0.5695373,0.087657 0.7271827,-0.1563007 0.1539396,-0.238188 0.0908,-0.5540573 -0.1392884,-0.7155962 z"
     id="path8"
     style="stroke-width:0.01563632;fill:#396eb2;fill-opacity:0.66839379" />
  <g
     transform="matrix(0.01563632,0,0,0.01563632,1.2937113,0.91236205)"
     id="g18"
     style="fill:#396eb2;fill-opacity:0.66839379">
    <g
       id="g16"
       style="fill:#396eb2;fill-opacity:0.66839379">
      <path
         inkscape:connector-curvature="0"
         d="m 467.068,33.035 -246.101,7.839 -67.449,104.74 c -10.082,15.603 -5.606,36.424 9.996,46.506 15.603,10.082 36.424,5.606 46.506,-9.996 l 45.013,-68.316 9.854,6.416 L 442.512,235.876 512,184.419 Z"
         id="path14"
         style="fill:#396eb2;fill-opacity:0.66839379" />
    </g>
  </g>
  <g
     transform="matrix(0.01563632,0,0,0.01563632,1.2937113,0.91236205)"
     id="g20" />
  <g
     transform="matrix(0.01563632,0,0,0.01563632,1.2937113,0.91236205)"
     id="g22" />
  <g
     transform="matrix(0.01563632,0,0,0.01563632,1.2937113,0.91236205)"
     id="g24" />
  <g
     transform="matrix(0.01563632,0,0,0.01563632,1.2937113,0.91236205)"
     id="g26" />
  <g
     transform="matrix(0.01563632,0,0,0.01563632,1.2937113,0.91236205)"
     id="g28" />
  <g
     transform="matrix(0.01563632,0,0,0.01563632,1.2937113,0.91236205)"
     id="g30" />
  <g
     transform="matrix(0.01563632,0,0,0.01563632,1.2937113,0.91236205)"
     id="g32" />
  <g
     transform="matrix(0.01563632,0,0,0.01563632,1.2937113,0.91236205)"
     id="g34" />
  <g
     transform="matrix(0.01563632,0,0,0.01563632,1.2937113,0.91236205)"
     id="g36" />
  <g
     transform="matrix(0.01563632,0,0,0.01563632,1.2937113,0.91236205)"
     id="g38" />
  <g
     transform="matrix(0.01563632,0,0,0.01563632,1.2937113,0.91236205)"
     id="g40" />
  <g
     transform="matrix(0.01563632,0,0,0.01563632,1.2937113,0.91236205)"
     id="g42" />
  <g
     transform="matrix(0.01563632,0,0,0.01563632,1.2937113,0.91236205)"
     id="g44" />
  <g
     transform="matrix(0.01563632,0,0,0.01563632,1.2937113,0.91236205)"
     id="g46" />
  <g
     transform="matrix(0.01563632,0,0,0.01563632,1.2937113,0.91236205)"
     id="g48" />
</svg>
